<svg width="16" height="18" viewBox="0 0 16 18" fill="none" xmlns="http://www.w3.org/2000/svg">
<path d="M11.025 10.125C10.016 10.125 9.53086 10.6875 7.875 10.6875C6.21914 10.6875 5.7375 10.125 4.725 10.125C2.11641 10.125 0 12.2414 0 14.85V16.3125C0 17.2441 0.755859 18 1.6875 18H14.0625C14.9941 18 15.75 17.2441 15.75 16.3125V14.85C15.75 12.2414 13.6336 10.125 11.025 10.125ZM14.625 16.3125C14.625 16.6219 14.3719 16.875 14.0625 16.875H1.6875C1.37812 16.875 1.125 16.6219 1.125 16.3125V14.85C1.125 12.8637 2.73867 11.25 4.725 11.25C5.41406 11.25 6.09961 11.8125 7.875 11.8125C9.64688 11.8125 10.3359 11.25 11.025 11.25C13.0113 11.25 14.625 12.8637 14.625 14.85V16.3125ZM7.875 9C10.3605 9 12.375 6.98555 12.375 4.5C12.375 2.01445 10.3605 0 7.875 0C5.38945 0 3.375 2.01445 3.375 4.5C3.375 6.98555 5.38945 9 7.875 9ZM7.875 1.125C9.73477 1.125 11.25 2.64023 11.25 4.5C11.25 6.35977 9.73477 7.875 7.875 7.875C6.01523 7.875 4.5 6.35977 4.5 4.5C4.5 2.64023 6.01523 1.125 7.875 1.125Z" fill="#1A3870"/>
</svg>