<svg width="14" height="18" viewBox="0 0 14 18" fill="none" xmlns="http://www.w3.org/2000/svg">
<path d="M13.1566 5.63555C12.5449 4.74961 11.3285 4.50703 10.418 5.12578L9.13827 6.00469C8.10468 6.71484 6.11483 7.21055 4.36054 6.00469L3.08085 5.12578C2.17733 4.50703 0.957412 4.74609 0.345693 5.63555C-0.269541 6.53203 -0.0410257 7.75898 0.851943 8.37422L2.13163 9.24961C2.51483 9.51328 2.93319 9.74531 3.37616 9.9457V10.7402L1.46718 12.716C0.792177 13.3418 0.641006 14.3473 1.11561 15.1523L2.4621 17.1246C2.82421 17.666 3.44296 18 4.10038 18C4.45194 18 4.79647 17.9051 5.09882 17.7258C5.55585 17.4551 6.93749 16.302 5.16913 14.3332L5.81601 13.9254C6.34686 14.1117 7.14843 14.1117 7.6828 13.9254L8.32968 14.3332C6.56132 16.302 7.94296 17.4551 8.39999 17.7258C8.70233 17.9051 9.04686 18 9.39843 18C10.0558 18 10.6711 17.666 11.0367 17.1246L12.3832 15.1523C12.8578 14.3473 12.7031 13.3418 12.0316 12.716L10.1262 10.7402V9.9457C10.5691 9.74883 10.984 9.51328 11.3707 9.24961L12.6504 8.37422C13.5433 7.75898 13.7719 6.52852 13.1566 5.63555ZM4.8246 15.6023C5.06015 16.0031 4.92655 16.5199 4.52577 16.759C4.39218 16.8398 4.24452 16.875 4.09687 16.875C3.80858 16.875 3.52733 16.7273 3.36913 16.4602L2.08241 14.5828C1.87147 14.2242 1.95233 13.7637 2.27577 13.5L3.63983 12.0516C3.66444 12.0797 3.67499 12.1148 3.6996 12.143L4.9371 13.3805L3.90351 14.3543L4.8246 15.6023ZM7.73905 12.607C7.27499 13.0711 6.20976 13.057 5.76327 12.607L4.50116 11.3449V10.9688H9.00116V11.3449L7.73905 12.607ZM11.223 13.5C11.5465 13.7637 11.6273 14.2242 11.4164 14.5828L10.1297 16.4602C9.97147 16.7273 9.69022 16.875 9.40194 16.875C9.2578 16.875 9.11015 16.8363 8.97304 16.759C8.57226 16.5234 8.43866 16.0031 8.67421 15.6023L9.59179 14.3508L8.55819 13.377L9.79569 12.1395C9.8203 12.1148 9.83436 12.0762 9.85546 12.048L11.223 13.5ZM12.0105 7.44609L10.7344 8.32148C10.193 8.69063 9.60937 8.97188 9.00116 9.1793V9.84375H4.50116V9.1793C3.89296 8.97188 3.30937 8.69414 2.76796 8.32148L1.49179 7.44609C0.563662 6.80625 1.53397 5.43164 2.44804 6.05391L3.72421 6.9293C5.38358 8.06836 7.84804 8.25469 9.7746 6.9293L11.0508 6.05391C11.9683 5.43164 12.9387 6.80625 12.0105 7.44609ZM6.75116 5.625C8.30507 5.625 9.56366 4.36641 9.56366 2.8125C9.56366 1.25859 8.30507 0 6.75116 0C5.19726 0 3.93866 1.25859 3.93866 2.8125C3.93866 4.36641 5.19726 5.625 6.75116 5.625ZM6.75116 1.125C7.6828 1.125 8.43866 1.88086 8.43866 2.8125C8.43866 3.74414 7.6828 4.5 6.75116 4.5C5.81952 4.5 5.06366 3.74414 5.06366 2.8125C5.06366 1.88086 5.81952 1.125 6.75116 1.125Z" fill="#1A3870"/>
</svg>