<svg width="16" height="18" viewBox="0 0 16 18" fill="none" xmlns="http://www.w3.org/2000/svg">
<path d="M14.0625 2.25H12.375V0.421875C12.375 0.188895 12.1861 0 11.9531 0H11.6719C11.4389 0 11.25 0.188895 11.25 0.421875V2.25H4.5V0.421875C4.5 0.188895 4.31111 0 4.07812 0H3.79688C3.56389 0 3.375 0.188895 3.375 0.421875V2.25H1.6875C0.755508 2.25 0 3.00551 0 3.9375V16.3125C0 17.2445 0.755508 18 1.6875 18H14.0625C14.9945 18 15.75 17.2445 15.75 16.3125V3.9375C15.75 3.00551 14.9945 2.25 14.0625 2.25ZM1.6875 3.375H14.0625C14.3726 3.375 14.625 3.62735 14.625 3.9375V5.625H1.125V3.9375C1.125 3.62735 1.37735 3.375 1.6875 3.375ZM14.0625 16.875H1.6875C1.37735 16.875 1.125 16.6226 1.125 16.3125V6.75H14.625V16.3125C14.625 16.6226 14.3726 16.875 14.0625 16.875Z" fill="#182233"/>
</svg>