<svg width="20" height="13" viewBox="0 0 20 13" fill="none" xmlns="http://www.w3.org/2000/svg">
<path d="M0.499922 7.99563C0.774879 7.99563 0.999844 7.77066 0.999844 7.4957C0.999844 7.22075 0.774879 6.99578 0.499922 6.99578C0.224965 6.99578 0 7.22075 0 7.4957C0 7.77379 0.224965 7.99563 0.499922 7.99563ZM19.7469 2.00281L16.2006 2.00906L14.6008 0.44993C14.3165 0.165599 13.9416 0.00937339 13.5416 0.00937339H10.3859C10.0609 0.00937339 9.75785 0.131229 9.50164 0.321825C9.23918 0.118731 8.91736 0 8.58616 0H6.41462C6.01781 0 5.63662 0.15935 5.35541 0.440556L3.79316 2.00281H0.249961C0.112482 2.00281 0 2.11529 0 2.25277V2.7527C0 2.89017 0.112482 3.00266 0.249961 3.00266H1.99969V8.99859H0.249961C0.112482 8.99859 0 9.11108 0 9.24856V9.74848C0 9.88596 0.112482 9.99844 0.249961 9.99844H1.99969C2.5496 9.99844 2.99328 9.55476 2.99641 9.00797H4.03375L6.58022 11.4451C7.51133 12.1981 8.82362 12.1762 9.73598 11.4388L9.96094 11.6326C10.2609 11.8763 10.6265 12.0044 11.0077 12.0044C11.5076 12.0044 11.9794 11.7857 12.3012 11.392L12.9855 10.5515C13.4979 10.8296 14.3259 10.8327 14.8602 10.1765L15.157 9.81097C15.3507 9.5735 15.457 9.2923 15.4851 9.00797H17.0036C17.0067 9.55476 17.4535 9.99844 18.0003 9.99844H19.75C19.8875 9.99844 20 9.88596 20 9.74848V9.24856C20 9.11108 19.8875 8.99859 19.75 8.99859H18.0003V3.0089L19.75 3.00266C19.8875 3.00266 20 2.89017 20 2.7527V2.25277C19.9969 2.11217 19.8844 2.00281 19.7469 2.00281ZM14.379 9.17669L14.0822 9.54226C13.9135 9.74848 13.601 9.79535 13.3792 9.61412L12.823 9.16419L11.5263 10.7577C11.292 11.0483 10.8702 11.0764 10.6077 10.8639L9.65162 10.0484L9.32667 10.4484C8.80487 11.0889 7.85815 11.1889 7.24574 10.6952L4.43681 8.005H2.99953V2.99953H4.20559L6.05843 1.1467C6.15216 1.05296 6.28027 0.999844 6.4115 0.999844H8.58303C8.61116 1.06858 8.59241 1.02172 8.6174 1.09045L6.77394 2.78394C5.89283 3.59319 5.84909 4.9461 6.64271 5.81159C7.08952 6.29902 8.47368 7.03953 9.67036 5.94282L10.3828 5.2898L14.3071 8.47368C14.5196 8.64865 14.5509 8.96422 14.379 9.17669ZM16.9973 8.005H15.2101C15.132 7.89564 15.0445 7.78941 14.9352 7.6988L11.1264 4.60553L12.0137 3.79003C12.2168 3.60256 12.2325 3.28699 12.045 3.08389C11.8575 2.8808 11.5419 2.8683 11.3389 3.05265L8.99234 5.20231C8.54242 5.61162 7.78628 5.57725 7.37697 5.13357C6.95204 4.67114 6.98016 3.94626 7.44571 3.5182L10.0422 1.13732C10.1359 1.05296 10.2546 1.00609 10.3796 1.00609H13.5354C13.6697 1.00609 13.7947 1.05921 13.8916 1.15607L15.7882 3.00266H16.9973V8.005ZM19.497 6.99891C19.222 6.99891 18.997 7.22387 18.997 7.49883C18.997 7.77379 19.222 7.99875 19.497 7.99875C19.7719 7.99875 19.9969 7.77379 19.9969 7.49883C19.9969 7.22075 19.7719 6.99891 19.497 6.99891Z" fill="#3E9E65"/>
</svg>