<svg width="15" height="18" viewBox="0 0 15 18" fill="none" xmlns="http://www.w3.org/2000/svg">
<path d="M13.9671 3.19029C13.1336 2.35684 11.7406 2.23362 10.6864 3.28788C10.6401 1.46689 9.14441 0 7.31253 0C5.48074 0 3.98509 1.46704 3.93862 3.28785C2.88087 2.2301 1.48784 2.36046 0.657976 3.19018C-0.219314 4.06754 -0.219313 5.49496 0.657905 6.37221L3.37503 9.08828V16.0312C3.37503 17.1168 4.25822 18 5.34378 18H5.90628C6.45661 18 6.95492 17.773 7.31253 17.4078C7.67014 17.773 8.16844 18 8.71878 18H9.28128C10.3668 18 11.25 17.1168 11.25 16.0312V9.08828L13.9671 6.37225C14.8443 5.49496 14.8443 4.06754 13.9671 3.19029ZM7.31253 1.125C8.55516 1.125 9.56253 2.13237 9.56253 3.375C9.56253 4.61763 8.55516 5.625 7.31253 5.625C6.06989 5.625 5.06253 4.61763 5.06253 3.375C5.06253 2.13237 6.06989 1.125 7.31253 1.125ZM13.1705 5.57677L10.125 8.62228V16.0312C10.125 16.4972 9.74727 16.875 9.28128 16.875H8.71878C8.25278 16.875 7.87503 16.4972 7.87503 16.0312V12.0938H6.75003V16.0312C6.75003 16.4972 6.37227 16.875 5.90628 16.875H5.34378C4.87778 16.875 4.50003 16.4972 4.50003 16.0312V8.62228L1.45451 5.57677C1.0152 5.13742 1.0152 4.42508 1.45451 3.98573C1.89389 3.54642 2.60612 3.54639 3.04554 3.98573L5.80981 6.75H8.81524L11.5795 3.98573C12.0189 3.54642 12.7311 3.54639 13.1705 3.98573C13.6099 4.42508 13.6099 5.13742 13.1705 5.57677Z" fill="#1A3870"/>
</svg>