<svg width="20" height="14" viewBox="0 0 20 14" fill="none" xmlns="http://www.w3.org/2000/svg">
<path d="M10.0005 7.77779C10.5899 7.77779 11.1551 7.54366 11.5718 7.12692C11.9886 6.71017 12.2227 6.14494 12.2227 5.55557C12.2227 4.96619 11.9886 4.40096 11.5718 3.98421C11.1551 3.56747 10.5899 3.33334 10.0005 3.33334C9.96577 3.33334 9.93521 3.34167 9.90153 3.34341C10.0086 3.63831 10.0294 3.95764 9.96134 4.26392C9.89332 4.5702 9.73935 4.85073 9.5175 5.07258C9.29565 5.29443 9.01512 5.4484 8.70884 5.51642C8.40256 5.58444 8.08323 5.56369 7.78833 5.45661C7.78833 5.49133 7.77826 5.52189 7.77826 5.55557C7.77826 5.84739 7.83574 6.13636 7.94742 6.40598C8.0591 6.67559 8.22278 6.92056 8.42914 7.12692C8.84588 7.54366 9.41112 7.77779 10.0005 7.77779ZM19.8797 6.15973C17.9967 2.48577 14.2689 0 10.0005 0C5.73208 0 2.00325 2.4875 0.121303 6.16008C0.0418728 6.3172 0.000488281 6.4908 0.000488281 6.66685C0.000488281 6.84291 0.0418728 7.0165 0.121303 7.17362C2.00429 10.8476 5.73208 13.3334 10.0005 13.3334C14.2689 13.3334 17.9977 10.8459 19.8797 7.17328C19.9591 7.01616 20.0005 6.84256 20.0005 6.66651C20.0005 6.49045 19.9591 6.31685 19.8797 6.15973ZM10.0005 1.11111C10.8795 1.11111 11.7388 1.37178 12.4697 1.86014C13.2006 2.3485 13.7702 3.04263 14.1066 3.85475C14.443 4.66687 14.531 5.5605 14.3595 6.42264C14.1881 7.28477 13.7648 8.0767 13.1432 8.69827C12.5216 9.31984 11.7297 9.74313 10.8676 9.91462C10.0054 10.0861 9.11179 9.9981 8.29967 9.66171C7.48755 9.32532 6.79342 8.75566 6.30506 8.02477C5.8167 7.29388 5.55604 6.4346 5.55604 5.55557C5.55732 4.37722 6.02599 3.2475 6.85921 2.41428C7.69242 1.58107 8.82214 1.1124 10.0005 1.11111ZM10.0005 12.2222C6.2727 12.2222 2.86645 10.0934 1.11158 6.66668C2.09854 4.72915 3.67689 3.15627 5.61784 2.17605C4.89319 3.11424 4.44492 4.27674 4.44492 5.55557C4.44492 7.02899 5.03024 8.44207 6.07211 9.48394C7.11398 10.5258 8.52706 11.1111 10.0005 11.1111C11.4739 11.1111 12.887 10.5258 13.9289 9.48394C14.9707 8.44207 15.5561 7.02899 15.5561 5.55557C15.5561 4.27674 15.1078 3.11424 14.3831 2.17605C16.3241 3.15627 17.9024 4.72915 18.8894 6.66668C17.1349 10.0934 13.7283 12.2222 10.0005 12.2222Z" fill="#3B7FFF"/>
</svg>