<svg width="18" height="18" viewBox="0 0 18 18" fill="none" xmlns="http://www.w3.org/2000/svg">
<path d="M17.5645 8.58592e-06H17.2016C16.9611 8.58592e-06 16.7661 0.194996 16.7661 0.435492V4.45011C15.1985 1.77994 12.2937 -0.0103341 8.97123 4.48909e-05C4.0217 0.0155408 -0.00771873 4.06485 1.11028e-05 9.01437C0.00777723 13.9783 4.03426 18 9.00001 18C11.3199 18 13.4348 17.1222 15.0307 15.6808C15.2162 15.5132 15.225 15.2249 15.0481 15.0481L14.7916 14.7916C14.6282 14.6282 14.3652 14.6205 14.1935 14.7751C12.8184 16.0127 10.9983 16.7661 9.00001 16.7661C4.72704 16.7661 1.23388 13.3065 1.23388 9C1.23388 4.72704 4.69347 1.23388 9.00001 1.23388C12.0071 1.23388 14.6155 2.94232 15.9057 5.44355H11.7581C11.5176 5.44355 11.3226 5.63854 11.3226 5.87904V6.24194C11.3226 6.48244 11.5176 6.67742 11.7581 6.67742H17.5645C17.805 6.67742 18 6.48244 18 6.24194V0.435492C18 0.194996 17.805 8.58592e-06 17.5645 8.58592e-06Z" fill="#3B7FFF"/>
</svg>