<svg width="14" height="18" viewBox="0 0 14 18" fill="none" xmlns="http://www.w3.org/2000/svg">
<path d="M7.59375 0.844095C7.59375 0.00737588 6.49828 -0.319929 6.0416 0.385657C2.69121 5.56347 7.03125 8.39285 7.03125 10.125C7.03125 10.9005 6.40055 11.5312 5.625 11.5312C4.84946 11.5312 4.21875 10.9005 4.21875 10.125V6.403C4.21875 5.72132 3.45059 5.3216 2.89231 5.71113C1.08106 6.97429 0 9.045 0 11.25C0 14.972 3.02801 18 6.75 18C10.472 18 13.5 14.972 13.5 11.25C13.5 5.26324 7.59375 4.47011 7.59375 0.844095ZM6.75 16.875C3.64852 16.875 1.125 14.3515 1.125 11.25C1.125 9.59976 1.85203 7.81347 3.09375 6.75V10.125C3.09375 11.5207 4.2293 12.6562 5.625 12.6562C7.02071 12.6562 8.15625 11.5207 8.15625 10.125C8.15625 7.83597 4.21875 5.625 6.55981 1.40624C7.3125 5.625 12.375 6.16289 12.375 11.25C12.375 14.3515 9.85149 16.875 6.75 16.875Z" fill="#3B7FFF"/>
</svg>