<svg width="18" height="18" viewBox="0 0 18 18" fill="none" xmlns="http://www.w3.org/2000/svg">
<path d="M9 0C4.02823 0 0 4.02823 0 9C0 13.9718 4.02823 18 9 18C13.9718 18 18 13.9718 18 9C18 4.02823 13.9718 0 9 0ZM13.6452 15.3C12.3423 16.2617 10.7383 16.8387 9 16.8387C7.26169 16.8387 5.65766 16.2617 4.35484 15.3V14.8065C4.35484 13.5254 5.39637 12.4839 6.67742 12.4839C7.08024 12.4839 7.6754 12.8976 9 12.8976C10.3282 12.8976 10.9161 12.4839 11.3226 12.4839C12.6036 12.4839 13.6452 13.5254 13.6452 14.8065V15.3ZM14.7556 14.302C14.5089 12.6181 13.0754 11.3226 11.3226 11.3226C10.5786 11.3226 10.2194 11.7363 9 11.7363C7.78064 11.7363 7.425 11.3226 6.67742 11.3226C4.9246 11.3226 3.49113 12.6181 3.24435 14.302C1.95605 12.9048 1.16129 11.0468 1.16129 9C1.16129 4.67782 4.67782 1.16129 9 1.16129C13.3222 1.16129 16.8387 4.67782 16.8387 9C16.8387 11.0468 16.044 12.9048 14.7556 14.302ZM9 4.06452C7.23629 4.06452 5.80645 5.49435 5.80645 7.25806C5.80645 9.02177 7.23629 10.4516 9 10.4516C10.7637 10.4516 12.1935 9.02177 12.1935 7.25806C12.1935 5.49435 10.7637 4.06452 9 4.06452ZM9 9.29032C7.87863 9.29032 6.96774 8.37944 6.96774 7.25806C6.96774 6.13669 7.87863 5.22581 9 5.22581C10.1214 5.22581 11.0323 6.13669 11.0323 7.25806C11.0323 8.37944 10.1214 9.29032 9 9.29032Z" fill="#3B7FFF"/>
</svg>