<svg width="18" height="18" viewBox="0 0 18 18" fill="none" xmlns="http://www.w3.org/2000/svg">
<path d="M9 0C4.02823 0 0 4.02823 0 9C0 13.9718 4.02823 18 9 18C13.9718 18 18 13.9718 18 9C18 4.02823 13.9718 0 9 0ZM16.0113 5.51613H13.0173C12.6907 3.90484 12.1427 2.53306 11.4496 1.55685C13.4456 2.21734 15.0859 3.65806 16.0113 5.51613ZM12.1935 9C12.1935 9.83105 12.1355 10.604 12.0375 11.3226H5.9625C5.86452 10.604 5.80645 9.83105 5.80645 9C5.80645 8.16895 5.86452 7.39597 5.9625 6.67742H12.0375C12.1355 7.39597 12.1935 8.16895 12.1935 9ZM9 1.16129C9.97621 1.16129 11.2282 2.76169 11.8343 5.51613H6.16573C6.77177 2.76169 8.02379 1.16129 9 1.16129ZM6.5504 1.55685C5.86089 2.52944 5.30927 3.90121 4.98266 5.51613H1.98871C2.91411 3.65806 4.55444 2.21734 6.5504 1.55685ZM1.16129 9C1.16129 8.19073 1.28468 7.41048 1.51331 6.67742H4.79758C4.70323 7.42137 4.64516 8.19436 4.64516 9C4.64516 9.80564 4.6996 10.5786 4.79758 11.3226H1.51331C1.28468 10.5895 1.16129 9.80927 1.16129 9ZM1.98871 12.4839H4.98266C5.30927 14.0952 5.85726 15.4669 6.5504 16.4431C4.55444 15.7827 2.91411 14.3419 1.98871 12.4839ZM9 16.8387C8.02379 16.8387 6.77177 15.2383 6.16573 12.4839H11.8343C11.2282 15.2383 9.97621 16.8387 9 16.8387ZM11.4496 16.4431C12.1391 15.4706 12.6907 14.0988 13.0173 12.4839H16.0113C15.0859 14.3419 13.4456 15.7827 11.4496 16.4431ZM13.2024 11.3226C13.2968 10.5786 13.3548 9.80564 13.3548 9C13.3548 8.19436 13.3004 7.42137 13.2024 6.67742H16.4867C16.7153 7.41048 16.8387 8.19073 16.8387 9C16.8387 9.80927 16.7153 10.5895 16.4867 11.3226H13.2024Z" fill="#182233"/>
</svg>