<svg width="11" height="12" viewBox="0 0 11 12" fill="none" xmlns="http://www.w3.org/2000/svg">
<path d="M8.63415 9.29561C8.63415 9.03805 8.42342 8.82732 8.16585 8.82732H2.25952C1.52781 8.82732 0.936585 8.2361 0.936585 7.50439V0.468293C0.936585 0.210732 0.725854 0 0.468293 0C0.210732 0 0 0.210732 0 0.468293V7.51024C0 8.75707 1.01269 9.76976 2.25952 9.76976H8.16585C8.42342 9.7639 8.63415 9.55317 8.63415 9.29561Z" fill="#6D6D6D"/>
<path d="M10.6947 8.96793L8.49369 6.76696C8.31222 6.58549 8.01369 6.58549 7.83222 6.76696C7.65076 6.94842 7.65076 7.24696 7.83222 7.42842L9.69954 9.29574L7.79125 11.204C7.60979 11.3855 7.60979 11.684 7.79125 11.8655C7.88491 11.9592 8.00198 12.0001 8.1249 12.0001C8.24198 12.0001 8.3649 11.9533 8.45856 11.8655L10.6947 9.6294C10.8761 9.44793 10.8761 9.1494 10.6947 8.96793Z" fill="#6D6D6D"/>
</svg>